<svg xmlns="http://www.w3.org/2000/svg" viewBox="0 0 118.95 119.03"><defs><style>.cls-1{fill:#4762d5;}.cls-2{fill:#dc6133;}.cls-3{fill:#f2ce48;}</style></defs><g id="Layer_2" data-name="Layer 2"><g id="Layer_1-2" data-name="Layer 1"><path class="cls-1" d="M21.58,21.58H32.76L54.35,0H10.87A11.14,11.14,0,0,0,6.56.83,10.28,10.28,0,0,0,3.11,3.15,11.08,11.08,0,0,0,0,10.87V54.35L21.58,32.76Z"/><path class="cls-2" d="M21.58,97.45V32.76L0,54.35v53.81a11.2,11.2,0,0,0,.83,4.32,10.36,10.36,0,0,0,5.73,5.72,11,11,0,0,0,4.31.83h8.24L40.69,97.45Z"/><path class="cls-2" d="M83.09,21.58q4.48,0,4.48,4.65V30.3a21.27,21.27,0,0,1-1.28,7.59,16,16,0,0,1-9.51,9.47,21.61,21.61,0,0,1-7.63,1.28H30.21V70.39H67.76l41.56-41.57V26.23A26,26,0,0,0,106.71,14a24.84,24.84,0,0,0-6.56-8.09,26.06,26.06,0,0,0-8.51-4.53A29,29,0,0,0,83.09,0H54.35L32.76,21.58Z"/><path class="cls-3" d="M113.72,67.82a34.53,34.53,0,0,0-5.6-7.31,38.21,38.21,0,0,0-6.85-5.39,40.74,40.74,0,0,0,6.14-12.5,44.5,44.5,0,0,0,1.91-12.32V28.82L67.76,70.39h11.1a21.39,21.39,0,0,1,7.63,1.29,16.23,16.23,0,0,1,5.81,3.69A16.82,16.82,0,0,1,96,81.14a20.63,20.63,0,0,1,1.33,7.6v4a6.27,6.27,0,0,1-.5,2.74,3.08,3.08,0,0,1-2.66,1.91c-.55,0-1,.08-1.41.08H40.69L19.11,119H92.8a26,26,0,0,0,12.2-2.61,24.76,24.76,0,0,0,12.58-15A30,30,0,0,0,119,92.89V88.74a44.22,44.22,0,0,0-1.41-11.54A38.3,38.3,0,0,0,113.72,67.82Z"/></g></g></svg>