<svg xmlns="http://www.w3.org/2000/svg" viewBox="0 0 1043.74 692.78"><defs><style>.cls-1{fill:#a9b3c1;}.cls-2{fill:#33465c;}.cls-3{fill:none;}.cls-4{fill:#60718d;}.cls-5{fill:#996b53;}.cls-6{fill:#12b57b;}.cls-7{fill:#bca877;}.cls-8{fill:#ae6344;}.cls-9{fill:#e3e2d5;}.cls-10{fill:#445d7b;}.cls-11{fill:#f8db94;}.cls-12{fill:#00a99d;}.cls-13{fill:#f4bb3a;}.cls-14{fill:#39b54a;}.cls-15{fill:#7f2e19;}.cls-16{fill:#999;}.cls-17{fill:#666;}.cls-18{fill:gray;}.cls-19{fill:#7989a3;}.cls-20{fill:#0071bc;}.cls-21{fill:#fff;}.cls-22{fill:#85402a;}.cls-23{fill:#f09b36;}.cls-24{fill:#a17a94;}.cls-25{fill:#31b78d;}.cls-26{fill:#4ac6e0;}.cls-27{fill:#ca6a4f;}.cls-28{fill:#895881;}.cls-29{fill:#bec0c2;}.cls-30{fill:#c2ce2f;}.cls-31{fill:#b55232;}.cls-32{fill:#ef4d4e;}.cls-33{fill:#0d0e1f;}</style></defs><g id="Layer_2" data-name="Layer 2"><g id="Layer_6" data-name="Layer 6"><path class="cls-1" d="M714.74,238.39h0a12,12,0,0,1,12-12h29.8a24.08,24.08,0,0,0,24.09-24.09h0a24.09,24.09,0,0,0-24.09-24.09H603.88a12,12,0,0,1-12-12h0a12,12,0,0,1,12-12H668a16.33,16.33,0,0,0,16.33-16.33h0A16.33,16.33,0,0,0,668,121.53H472.12a16.33,16.33,0,0,0-16.33,16.33h0a16.33,16.33,0,0,0,16.33,16.33h37.1a12,12,0,0,1,12,12h0a12,12,0,0,1-12,12H314.35a24.09,24.09,0,0,0-24.08,24.09h0a24.08,24.08,0,0,0,24.08,24.09h69.48a17,17,0,0,1,17,17h0a17,17,0,0,1-17,17H241.69a20.08,20.08,0,0,0-20.08,20.08h0a20.08,20.08,0,0,0,20.08,20.08H495.48a20.08,20.08,0,0,0,20.08-20.08h0a20.08,20.08,0,0,0-20.08-20.08h-7a17,17,0,0,1-17-17h0a17,17,0,0,1,17-17H632.09a12,12,0,0,1,12,12h0a12,12,0,0,1-12,12h-5a25.1,25.1,0,0,0-25.1,25.1h0a25.1,25.1,0,0,0,25.1,25.1H870.3a25.1,25.1,0,0,0,25.1-25.1h0a25.1,25.1,0,0,0-25.1-25.1H726.75A12,12,0,0,1,714.74,238.39Z"/><path class="cls-1" d="M331.37,435h0a23.2,23.2,0,0,0-23.2-23.21H56.09A23.21,23.21,0,0,0,32.89,435h0a23.2,23.2,0,0,0,23.2,23.2h48.4a17.16,17.16,0,0,1,17.16,17.17h0a17.16,17.16,0,0,1-17.16,17.16H29.57a19.05,19.05,0,0,0-19,19.05h0A19.05,19.05,0,0,0,29.57,530.6H276.45a19.05,19.05,0,0,0,19.06-19.05h0a19.05,19.05,0,0,0-19.06-19.05h-24a17.16,17.16,0,0,1-17.16-17.16h0a17.16,17.16,0,0,1,17.16-17.17h55.74A23.19,23.19,0,0,0,331.37,435Z"/><path class="cls-1" d="M1033.22,408.91h0a21.54,21.54,0,0,0-21.54-21.54H786.79a21.54,21.54,0,0,0-21.55,21.54h0a21.54,21.54,0,0,0,21.55,21.54h51.92A15.32,15.32,0,0,1,854,445.77h0a15.31,15.31,0,0,1-15.32,15.31H734.26a22.51,22.51,0,0,0-22.51,22.51h0a22.5,22.5,0,0,0,22.51,22.5H979.5a22.5,22.5,0,0,0,22.5-22.5v-1.8a20.71,20.71,0,0,0-20.7-20.71h0A15.31,15.31,0,0,1,966,445.77h0a15.32,15.32,0,0,1,15.32-15.32h30.38A21.54,21.54,0,0,0,1033.22,408.91Z"/><path class="cls-2" d="M9.17,618.61H1034.58a0,0,0,0,1,0,0v39.08a35.09,35.09,0,0,1-35.09,35.09H44.25A35.09,35.09,0,0,1,9.17,657.69V618.61A0,0,0,0,1,9.17,618.61Z"/></g><g id="Layer_5" data-name="Layer 5"><path class="cls-3" d="M586.17,122.4A11.18,11.18,0,0,0,597.32,105a11.07,11.07,0,0,0-7.2-4.61,11.15,11.15,0,0,0-13,9,11.18,11.18,0,0,0,9,13Z"/><path class="cls-3" d="M825.82,542.33V495.64c0-.79-1.5-2-3-2.77h-6.48V550.2C825.7,548.69,825.82,542.62,825.82,542.33Z"/><path class="cls-3" d="M476.43,90.13a18,18,0,1,0-18-18A18,18,0,0,0,476.43,90.13Z"/><path class="cls-4" d="M432.73,81.67a44.58,44.58,0,0,0,6.06,14.63,4.57,4.57,0,0,1-.61,5.72l-8.91,8.9,8.37,8.37,8.91-8.9a4.59,4.59,0,0,1,5.72-.62,44.21,44.21,0,0,0,14.63,6.07,4.58,4.58,0,0,1,3.61,4.48v12.59h11.84V120.32a4.58,4.58,0,0,1,3.61-4.48,44.3,44.3,0,0,0,14.63-6.07,4.59,4.59,0,0,1,5.72.62l8.9,8.9,8.38-8.37-8.91-8.9a4.57,4.57,0,0,1-.61-5.72,44.58,44.58,0,0,0,6.06-14.63,4.58,4.58,0,0,1,4.48-3.61H537.2V66.22H524.61a4.58,4.58,0,0,1-4.48-3.61A44.4,44.4,0,0,0,514.07,48a4.57,4.57,0,0,1,.61-5.72l8.91-8.91L515.21,25l-8.9,8.91a4.59,4.59,0,0,1-5.72.61A44.49,44.49,0,0,0,486,28.44,4.59,4.59,0,0,1,482.35,24V11.37H470.51V24a4.59,4.59,0,0,1-3.61,4.48,44.4,44.4,0,0,0-14.63,6.06,4.59,4.59,0,0,1-5.72-.61L437.64,25l-8.37,8.37,8.91,8.91a4.57,4.57,0,0,1,.61,5.72,44.4,44.4,0,0,0-6.06,14.63,4.58,4.58,0,0,1-4.48,3.61H415.66V78.06h12.59A4.58,4.58,0,0,1,432.73,81.67Zm57.81,27.06c-3.87,0-3.86-6,0-6S494.4,108.73,490.54,108.73Zm-17-74c3.86,0,3.86,6,0,6S469.68,34.73,473.54,34.73ZM476.43,45a27.16,27.16,0,1,1-27.16,27.16A27.19,27.19,0,0,1,476.43,45ZM438.7,63a46.72,46.72,0,0,1,19.19-24.69c3.25-2.11,6.26,3.09,3,5.18a40.18,40.18,0,0,0-16.44,21.11C443.26,68.19,437.46,66.62,438.7,63Z"/><path class="cls-5" d="M443.58,297.82V288h9.16v2.69c15.77,2.3,77.66,10.37,138.26,5.18V288h9.16v9.8a15,15,0,0,1,5.29-2.13,12.09,12.09,0,0,1,4.52.05c8-5.86,10.1-18.55,10.64-25-9.89-1.71-14.46-5.37-15-5.83a4.58,4.58,0,0,1-.14-6.87c4.32-4,7.18-12,8.81-18.55-12,3.37-24.88,1.35-25.55,1.24a4.58,4.58,0,0,1-1.94-8.24c4.09-2.94,6.66-11.36,7.92-18.88-22.44,9.38-52.37,14.29-53.78,14.52a4.58,4.58,0,0,1-4-7.68c6.79-7.16,6.76-16.52,5.51-23.18-19.59,23.6-59.85,38.36-61.74,39.05a4.58,4.58,0,0,1-6.1-4.92c.55-4.12-.83-8.92-3-13.18a75,75,0,0,1-9.92,15.06c-5.37,6.61-10.93,13.82-15.28,21.77-7.24,13.23-8.69,27.61-8.72,40.53l.7.1A15,15,0,0,1,443.58,297.82ZM566,238.13c3.7,0,3.69,5.73,0,5.73S562.3,238.13,566,238.13ZM537.05,272.5c3.69,0,3.69,5.73,0,5.73S533.37,272.5,537.05,272.5Zm-9.74.86c3.7,0,3.69,5.73,0,5.73S523.63,273.36,527.31,273.36Zm-6.94-43.8c5.16,0,5.15,8,0,8S515.22,229.56,520.37,229.56Zm-7.5,18.5c5.16,0,5.15,8,0,8S507.72,248.06,512.87,248.06Zm-16-8c5.16,0,5.15,8,0,8S491.72,240.06,496.87,240.06ZM476.5,273a188.52,188.52,0,0,0,40.21,2c3.69-.2,3.66,5.53,0,5.73A196.37,196.37,0,0,1,475,278.53C471.34,278,472.89,272.43,476.5,273ZM451,267.48a31.94,31.94,0,0,1,8.11-14.22c3.61-3.69,9.26,2,5.66,5.65a23.76,23.76,0,0,0-6.06,10.7C457.34,274.59,449.62,272.47,451,267.48Z"/><path class="cls-6" d="M479.61,576.41l7.49-20.91H465.83a23.28,23.28,0,0,1-3.61,20.91Z"/><polygon class="cls-4" points="569.4 591.11 660.51 591.11 660.51 585.58 567.42 585.58 569.4 591.11"/><path class="cls-7" d="M600.16,321.55v5.95H604c1.78-.88,6.52-7.19,7.69-14.33.32-2,.57-5.64-1.49-7.36a3.64,3.64,0,0,0-3.15-1.1c-2.56.45-5.41,3.71-6.91,5.89v6.84a10.81,10.81,0,0,0,2.7-3,1.72,1.72,0,0,1,3,1.74A14.29,14.29,0,0,1,600.16,321.55Z"/><path class="cls-6" d="M605.72,576.41a23.07,23.07,0,0,1-5.54-14.16L600,555.5H556.64l7.49,20.91Z"/><path class="cls-1" d="M364.2,541.06H637.54c3.13,0,4.35,3,3.67,5.28h45.27a10,10,0,0,0,9.93-9.93V346.59a10,10,0,0,0-9.93-9.93H357.26a10,10,0,0,0-9.93,9.93V536.41a10,10,0,0,0,9.93,9.93h3.27C359.86,544,361.07,541.06,364.2,541.06Zm306-104.33c3.87,0,3.87,6,0,6S666.34,436.73,670.2,436.73Zm2.53,85.16c-4.43,0-4.42-6.87,0-6.87S677.15,521.89,672.73,521.89ZM649.34,351H673.4a5.45,5.45,0,0,1,0,10.89H649.34a5.45,5.45,0,1,1,0-10.89ZM612.2,439.4h36.67c3.87,0,3.86,6,0,6H612.2C608.34,445.4,608.34,439.4,612.2,439.4Zm-38,76.38H659c4.43,0,4.42,6.88,0,6.88H574.19C569.76,522.66,569.77,515.78,574.19,515.78Zm-45.32-158c5.16,0,5.15,8,0,8S523.72,357.73,528.87,357.73Zm-14.67,0c5.16,0,5.15,8,0,8S509.06,357.73,514.2,357.73Zm7.67,50.92A32.85,32.85,0,1,1,489,441.5,32.89,32.89,0,0,1,521.87,408.65ZM407.54,357.73h81.33c5.16,0,5.15,8,0,8H407.54C402.38,365.73,402.39,357.73,407.54,357.73Zm-38.82-.83c4.43,0,4.42,6.88,0,6.88S364.3,356.9,368.72,356.9Zm0,17.57c4.43,0,4.42,6.88,0,6.88S364.3,374.47,368.72,374.47Zm0,17.57c4.43,0,4.42,6.88,0,6.88S364.3,392,368.72,392Zm-3.44,26.35c0-4.43,6.88-4.42,6.88,0v95.48c0,4.43-6.88,4.43-6.88,0Z"/><path class="cls-8" d="M745.39,472.82h-.06v.06Z"/><path class="cls-8" d="M745.33,477.25v77.3h23.3c3,0,2.94,4.58,0,4.58h-23.3v10.69H807.2v-85H777.6c-3,0-3-4.59,0-4.59h29.6v-2.2H747.37A2.75,2.75,0,0,1,745.33,477.25Zm34.94,81.88c-2.95,0-2.94-4.58,0-4.58S783.22,559.13,780.27,559.13Zm10.32,0c-3,0-3-4.58,0-4.58S793.54,559.13,790.59,559.13Zm-22.35-53.61c9.76-5.63,21.3-4,25.72,3.67s.08,18.48-9.68,24.11a24.18,24.18,0,0,1-12,3.35c-5.85,0-11-2.43-13.7-7C754.15,522,758.49,511.15,768.24,505.52Z"/><path class="cls-9" d="M521.87,465.18a23.68,23.68,0,1,0-23.68-23.68A23.7,23.7,0,0,0,521.87,465.18Z"/><path class="cls-10" d="M548.28,107.35l7.42,1.33a4,4,0,0,1,3.3,3.8,28.79,28.79,0,0,0,2.21,10.09,4,4,0,0,1-1.41,4.83l-6.2,4.31,3.49,5,6.2-4.31a4,4,0,0,1,5,.35,28.85,28.85,0,0,0,8.68,5.58,4,4,0,0,1,2.42,4.41l-1.33,7.43,6,1.08,1.34-7.43a4,4,0,0,1,3.8-3.3,28.74,28.74,0,0,0,10.08-2.21,4,4,0,0,1,4.83,1.42l4.31,6.19,5-3.49-4.31-6.19a4,4,0,0,1,.36-5,28.82,28.82,0,0,0,5.57-8.68,4,4,0,0,1,4.42-2.42l7.42,1.33,1.08-6-7.42-1.33a4,4,0,0,1-3.3-3.81,29,29,0,0,0-2.21-10.08,4,4,0,0,1,1.41-4.83l6.2-4.31-3.49-5L613,90.38a4,4,0,0,1-5-.35,28.83,28.83,0,0,0-8.69-5.58A4,4,0,0,1,596.87,80l1.34-7.43-6-1.08L590.86,79a4,4,0,0,1-3.8,3.3A28.83,28.83,0,0,0,577,84.46a4,4,0,0,1-4.83-1.41l-4.31-6.19-5,3.49,4.31,6.19a4,4,0,0,1-.36,5,29,29,0,0,0-5.58,8.69,4,4,0,0,1-4.41,2.42l-7.42-1.33Zm60.47-14.29c3.86,0,3.86,6,0,6S604.89,93.06,608.75,93.06Zm-39.5,15a19.2,19.2,0,1,1,18.9,22.59,19.7,19.7,0,0,1-3.4-.3A19.2,19.2,0,0,1,569.25,108Z"/><path class="cls-11" d="M591,327.5V305.09c-14.26,1.19-28.57,1.67-42.34,1.67A715.7,715.7,0,0,1,452.74,300V327.5H479.1v-3.44a5.73,5.73,0,1,1,11.45,0v3.44h62.64v-3.44a5.73,5.73,0,1,1,11.46,0v3.44Z"/><path class="cls-7" d="M439.72,327.5h3.86v-7.18a28.5,28.5,0,0,1-5.12-4.51c-1.47-1.65,1-4.08,2.43-2.43a25.35,25.35,0,0,0,2.69,2.6V310.6c-1.5-2.18-4.35-5.44-6.91-5.89a3.63,3.63,0,0,0-3.14,1.1c-2.06,1.72-1.82,5.35-1.49,7.36C433.2,320.31,437.94,326.62,439.72,327.5Z"/><path class="cls-11" d="M609.2,555.5l.14,6.47A14.13,14.13,0,0,0,624,575.45a14.14,14.14,0,0,0,13.58-14.6l-.39-5.35Z"/><path class="cls-12" d="M948.67,591.11V579h-19.8v12.12Z"/><path class="cls-13" d="M1011.87,491.22H991.06v24.3h20.81Z"/><path class="cls-14" d="M891.38,488.06V591.11h24.06v-103H891.38Zm18.33,70.59a6.3,6.3,0,1,1-12.6,0V514.83a6.3,6.3,0,0,1,12.6,0Z"/><path class="cls-15" d="M780.85,527.35c6.36-3.68,9.64-10.42,7.16-14.72-1.38-2.38-4.28-3.6-7.67-3.6a17.68,17.68,0,0,0-8.66,2.44c-6.36,3.68-9.64,10.42-7.16,14.72S774.48,531,780.85,527.35Zm-10.1-5.14a4.18,4.18,0,0,0,1.48-.35,7.43,7.43,0,0,0,1.88-1.23c.62-.55,1.3-1.32,2.09-2.18a14.08,14.08,0,0,1,2.72-2.37,7,7,0,0,1,3-1.1,4.65,4.65,0,0,1,2.21.27,3,3,0,0,1,.71.38,4.59,4.59,0,0,0-.78.09,4.88,4.88,0,0,0-1.73.73,9.55,9.55,0,0,0-1.85,1.65c-.6.67-1.23,1.52-2,2.4a9.91,9.91,0,0,1-2.87,2.23,6,6,0,0,1-3.07.63,3.6,3.6,0,0,1-1.89-.68,3.53,3.53,0,0,1-.38-.36l-.11-.13A4.12,4.12,0,0,0,770.75,522.21Z"/><path class="cls-16" d="M958.87,466.56a3.06,3.06,0,0,1-1-.18V591.11h24.06V466.39a3.2,3.2,0,0,1-1,.17ZM975.59,562H963.85V516.93h11.74Zm0-55.57H963.85V486.09h11.74Z"/><path class="cls-17" d="M1011.87,457.06s0-.06,0-.09H993.21a2.15,2.15,0,0,0-2.15,2.15v22.94h20.81ZM1008,469.28a2.31,2.31,0,0,1-2.29-2.29v-2.86a2.29,2.29,0,1,1,4.58,0V467A2.32,2.32,0,0,1,1008,469.28Z"/><path class="cls-17" d="M997.36,565.05c0-2.95,4.58-2.95,4.58,0v26.06h9.93V524.69H991.06v66.42h6.3Zm1.91-14.13c3,0,3,4.58,0,4.58S996.32,550.92,999.27,550.92Z"/><path class="cls-18" d="M928.87,436.06V569.82h19.8V436.58a2.16,2.16,0,0,0-2.15-2.15H928.4A2.9,2.9,0,0,1,928.87,436.06Zm8.53,12.12c0-2.95,4.58-2.95,4.58,0v40.1c0,3-4.58,3-4.58,0Zm1.91,48.13c3,0,3,4.58,0,4.58S936.36,496.31,939.31,496.31Zm0,9.54c3,0,3,4.59,0,4.59S936.36,505.85,939.31,505.85Z"/><path class="cls-19" d="M141.76,245H339.41a8.32,8.32,0,0,0,8.31-8.31V117a8.31,8.31,0,0,0-8.31-8.3H141.76a8.31,8.31,0,0,0-8.3,8.3V236.69A8.31,8.31,0,0,0,141.76,245Zm-1.14-123.83a6,6,0,0,1,6-6H334.54a6,6,0,0,1,6,6V232.49a6,6,0,0,1-6,6H146.63a6,6,0,0,1-6-6Z"/><path class="cls-20" d="M862.87,458.06v40.73h19.34V459.12a2.15,2.15,0,0,0-2.15-2.15H862.67A3.07,3.07,0,0,1,862.87,458.06Zm4.73,10.08c3,0,2.95,4.58,0,4.58S864.66,468.14,867.6,468.14ZM865.31,477a2.3,2.3,0,0,1,4.59,0v2.86a2.3,2.3,0,0,1-4.59,0Z"/><path class="cls-20" d="M882.21,591.11V541.42H862.87v49.69Zm-7.44-14.55c-3,0-2.95-4.59,0-4.59S877.71,576.56,874.77,576.56Zm-1.91-21.44c0-3,4.58-3,4.58,0v10.69c0,3-4.58,3-4.58,0Z"/><path class="cls-21" d="M331.39,124.32H149.79v105h181.6Zm-19.8,14.89a6.69,6.69,0,1,1-6.69,6.69A6.7,6.7,0,0,1,311.59,139.21Zm-23.67,0a6.69,6.69,0,1,1-6.69,6.69A6.69,6.69,0,0,1,287.92,139.21Zm-23.67,0a6.69,6.69,0,1,1-6.69,6.69A6.69,6.69,0,0,1,264.25,139.21Zm-23.66,0a6.69,6.69,0,1,1-6.69,6.69A6.7,6.7,0,0,1,240.59,139.21Zm-78-6.3h20.73v38.82H162.63Zm49.69,85.65H163.13v-37.9h49.19Zm0-46.83H191.59V132.91h20.73Zm35.46,46.83H233.4v-37.9h14.38Zm23.66,0H257.06v-37.9h14.38Zm23.67,0H280.73v-37.9h14.38Zm23.67,0H304.4v-37.9h14.38Zm1.59-46.83h-86.6v-6.17h86.6Z"/><path class="cls-13" d="M882.21,532.25V508H862.87v24.3Z"/><rect class="cls-22" x="741.89" y="578.99" width="68.75" height="12.12"/><path class="cls-23" d="M167.79,420.58a5.16,5.16,0,0,0-9.43-2.89,4,4,0,0,1,1-.13c4.67,0,5.09,6.54,1.31,7.78a5.06,5.06,0,0,0,1.95.39A5.16,5.16,0,0,0,167.79,420.58Z"/><path class="cls-21" d="M894,124.32H712.35v105H894ZM746.87,203.75H725.48V182.37h21.39Zm30.69,0H756.18V182.37h21.38Zm30.7,0H786.87V182.37h21.39ZM839,219.63H817.56V198.24H839Zm0-29.13H817.56V169.12H839Zm31.25,29.13H848.81V198.24H870.2Zm0-29.13H848.81V169.12H870.2Zm10.63-29.12H725.48v-26H880.83Z"/><path class="cls-23" d="M185.43,471.72H179.9l21.5,55.14h5.53Z"/><path class="cls-24" d="M62.13,591.11h56.05v-28h-56V590.4A4.07,4.07,0,0,1,62.13,591.11Zm24.73-16.32h22c3.7,0,3.69,5.73,0,5.73h-22C83.17,580.52,83.18,574.79,86.86,574.79Zm-10.12,0c3.7,0,3.69,5.73,0,5.73S73.06,574.79,76.74,574.79Zm-11.65,0c3.7,0,3.69,5.73,0,5.73S61.41,574.79,65.09,574.79Z"/><path class="cls-25" d="M180.49,459.05l-5.56-.08,2.9,7.45h5.53Z"/><path class="cls-25" d="M170.45,433.32l-4.8,1.87,7.93,20.32,5.56.09Z"/><path class="cls-26" d="M255.05,582.24h-47.9c-1.6.82-5.22,4.33-9.28,8.87h66.46C260.28,586.57,256.66,583.06,255.05,582.24Z"/><path class="cls-25" d="M225,573.07,208.27,530.3h-5.53l16.68,42.77Z"/><polygon class="cls-13" points="68.35 494.01 73.26 494.01 69.44 463.06 64.6 463.66 68.35 494.01"/><rect class="cls-27" x="63.11" y="446.26" width="4.87" height="10.31" transform="translate(-54.8 11.43) rotate(-7.04)"/><path class="cls-28" d="M118.18,556.27V534.88h-56v21.39Z"/><polygon class="cls-29" points="110.24 476.2 95.85 473.73 92.37 494.01 107.18 494.01 110.24 476.2"/><path class="cls-30" d="M112.86,460.93a3,3,0,0,0-2.46-3.47L102,456a3,3,0,0,0-3.48,2.45L97,467l14.38,2.47Z"/><path class="cls-19" d="M704.33,245H902a8.31,8.31,0,0,0,8.3-8.31V117a8.31,8.31,0,0,0-8.3-8.3H704.33A8.31,8.31,0,0,0,696,117V236.69A8.31,8.31,0,0,0,704.33,245Zm-1.14-123.83a6,6,0,0,1,6-6H897.11a6,6,0,0,1,6,6V232.49a6,6,0,0,1-6,6H709.2a6,6,0,0,1-6-6Z"/><path class="cls-31" d="M1031.27,606.06H533.14v12.55h501.3a.15.15,0,0,0,.14-.15V604.23A3.64,3.64,0,0,1,1031.27,606.06Z"/><path class="cls-24" d="M62.2,528h56V505.66a2.48,2.48,0,0,0-2.48-2.48H62.2Z"/><path class="cls-11" d="M426.52,555.5l3.62,11.27a14.11,14.11,0,0,0,11.35,9.64h4.22a13.29,13.29,0,0,0,2.21-.5,14.15,14.15,0,0,0,9.14-17.77l-.85-2.64Z"/><path class="cls-23" d="M269.11,305.8l-2.73,4.09,2.17,1.38c1.87,1.18.14,4.15-1.73,3l-2.35-1.49-6.3,9.45-12.93,19.36a117.64,117.64,0,0,0,10.21,11.83l3.7-5.54a2.64,2.64,0,0,1-.35-.23L255.65,345a1.74,1.74,0,0,1,0-2.43,1.77,1.77,0,0,1,2.43,0l3,2.41,22.7-34Q276.52,308,269.11,305.8Z"/><path class="cls-4" d="M533.14,576.32v14.79h26.52L546.91,555.5H501.4a265.86,265.86,0,0,1-11.51,35.61H510.6V576.32a11.27,11.27,0,1,1,22.54,0Z"/><path class="cls-4" d="M476.32,585.58h-30a22.72,22.72,0,0,1-2.72.18,22.29,22.29,0,0,1-2.71-.18H383.23v5.53h91.11Z"/><path class="cls-23" d="M195.83,374.81l2.84-4.09a28.89,28.89,0,0,1-3.79-3.54l-3.29,4.74,3.75,2.43A1.81,1.81,0,0,1,195.83,374.81Z"/><path class="cls-25" d="M217.49,299c2.45,9.57,8.19,25.14,21,36.05l21.24-31.81A159.08,159.08,0,0,0,217.49,299Zm13.41,15.05a29.86,29.86,0,0,1-5.61-9.57c-.75-2.09,2.57-3,3.31-.91a25.24,25.24,0,0,0,4.73,8C234.78,313.32,232.35,315.76,230.9,314.08Zm4.92,5.11a1.72,1.72,0,0,1,0-3.44A1.72,1.72,0,0,1,235.82,319.19Z"/><path class="cls-31" d="M509.87,606.06H9.17v12.4a.14.14,0,0,0,.13.15H510.6V606A4.21,4.21,0,0,1,509.87,606.06Z"/><path class="cls-25" d="M224.39,333.71c-.36-.44-.7-.88-1-1.32l-2.94-2-22.32,32.13a47.53,47.53,0,0,1,3.39,4.12Z"/><path class="cls-23" d="M194,377.49a1.46,1.46,0,0,1-.35-.18l-4-2.57L167.21,407a14.26,14.26,0,0,1,4.5,2.49Z"/><path class="cls-27" d="M521.87,574.22a2.1,2.1,0,0,0-2.1,2.1v64.54a2.1,2.1,0,0,0,4.2,0V576.32A2.1,2.1,0,0,0,521.87,574.22Z"/><rect class="cls-25" x="162.63" y="132.91" width="20.73" height="38.82"/><path class="cls-25" d="M191.59,171.73h20.73V132.91H191.59Zm9.28-14.67c5.16,0,5.15,8,0,8S195.72,157.06,200.87,157.06Z"/><path class="cls-23" d="M163.13,218.56h49.19v-37.9H163.13ZM180.2,202.4h14c5.16,0,5.15,8,0,8h-14C175.05,210.4,175.06,202.4,180.2,202.4Z"/><rect class="cls-32" x="233.77" y="165.56" width="86.6" height="6.17"/><circle class="cls-32" cx="240.59" cy="145.9" r="6.69" transform="translate(-4.67 7.99) rotate(-1.88)"/><circle class="cls-32" cx="264.25" cy="145.9" r="6.69"/><circle class="cls-32" cx="287.92" cy="145.9" r="6.69"/><path class="cls-32" d="M311.59,152.59a6.69,6.69,0,1,0-6.69-6.69A6.69,6.69,0,0,0,311.59,152.59Z"/><rect class="cls-23" x="233.4" y="180.66" width="14.38" height="37.9"/><rect class="cls-25" x="257.06" y="180.66" width="14.38" height="37.9"/><rect class="cls-23" x="280.73" y="180.66" width="14.38" height="37.9"/><rect class="cls-25" x="304.4" y="180.66" width="14.38" height="37.9"/><path class="cls-20" d="M725.48,161.38H880.83v-26H725.48Zm67.89-13.32c3.87,0,3.86,6,0,6S789.51,148.06,793.37,148.06Zm-48.5,1h33c3.87,0,3.86,6,0,6h-33C741,155.06,741,149.06,744.87,149.06Z"/><rect class="cls-16" x="725.48" y="182.37" width="21.39" height="21.39"/><rect class="cls-10" x="756.18" y="182.37" width="21.39" height="21.39"/><rect class="cls-10" x="786.87" y="182.37" width="21.39" height="21.39"/><rect class="cls-32" x="817.56" y="169.12" width="21.39" height="21.39"/><rect class="cls-4" x="848.81" y="169.12" width="21.39" height="21.39"/><rect class="cls-32" x="817.56" y="198.24" width="21.39" height="21.39"/><rect class="cls-4" x="848.81" y="198.24" width="21.39" height="21.39"/><path class="cls-21" d="M62.2,590.4V563.14H57.07v28h5.06A4.07,4.07,0,0,0,62.2,590.4Z"/><path class="cls-21" d="M62.2,534.88H57.07v21.39H62.2Z"/><path class="cls-21" d="M59.56,503.18a2.49,2.49,0,0,0-2.49,2.48V528H62.2V503.18Z"/><path class="cls-21" d="M509.87,606.06a4.21,4.21,0,0,0,.73-.07v-5.71H9.3a.13.13,0,0,0-.13.14v5.64h500.7Z"/><path class="cls-21" d="M1031.27,606.06a3.64,3.64,0,0,0,3.31-1.83v-3.81a.14.14,0,0,0-.14-.14H533.14v5.78h498.13Z"/><path class="cls-21" d="M407.54,365.73h81.33c5.15,0,5.16-8,0-8H407.54C402.39,357.73,402.38,365.73,407.54,365.73Z"/><path class="cls-21" d="M514.2,365.73c5.15,0,5.16-8,0-8S509.05,365.73,514.2,365.73Z"/><path class="cls-21" d="M528.87,365.73c5.15,0,5.16-8,0-8S523.72,365.73,528.87,365.73Z"/><path class="cls-21" d="M458.66,269.61a23.76,23.76,0,0,1,6.06-10.7c3.6-3.68-2.05-9.34-5.66-5.65A31.94,31.94,0,0,0,451,267.48C449.62,272.47,457.34,274.59,458.66,269.61Z"/><path class="cls-21" d="M496.87,248.06c5.15,0,5.16-8,0-8S491.72,248.06,496.87,248.06Z"/><path class="cls-21" d="M520.37,237.56c5.15,0,5.16-8,0-8S515.22,237.56,520.37,237.56Z"/><path class="cls-21" d="M512.87,256.06c5.15,0,5.16-8,0-8S507.72,256.06,512.87,256.06Z"/><path class="cls-21" d="M637.54,541.06H364.2c-3.13,0-4.34,3-3.67,5.28H641.21C641.89,544,640.67,541.06,637.54,541.06Z"/><path class="cls-21" d="M496.84,555.5l-12.76,35.61h5.81A265.86,265.86,0,0,0,501.4,555.5Z"/><path class="cls-21" d="M180.2,210.4h14c5.15,0,5.16-8,0-8h-14C175.06,202.4,175.05,210.4,180.2,210.4Z"/><path class="cls-21" d="M200.87,165.06c5.15,0,5.16-8,0-8S195.72,165.06,200.87,165.06Z"/><path class="cls-21" d="M285.93,307.72a116.09,116.09,0,0,0-14.84-4.89l-2,3q7.41,2.24,14.63,5.21Z"/><path class="cls-21" d="M259.78,303.27l2.76-4.14c-17.82-9.13-37.86-6.48-46.1-4.78.25,1.3.59,2.88,1.05,4.68A159.08,159.08,0,0,1,259.78,303.27Z"/><path class="cls-21" d="M159.37,417.56a4,4,0,0,0-1,.13,5.14,5.14,0,0,0,2.32,7.65C164.46,424.1,164,417.56,159.37,417.56Z"/><path class="cls-21" d="M444.48,64.55a40.18,40.18,0,0,1,16.44-21.11c3.23-2.09.22-7.29-3-5.18A46.72,46.72,0,0,0,438.7,63C437.46,66.62,443.26,68.19,444.48,64.55Z"/><path class="cls-21" d="M473.54,40.73c3.86,0,3.86-6,0-6S469.67,40.73,473.54,40.73Z"/><path class="cls-21" d="M490.54,102.73c-3.86,0-3.87,6,0,6S494.4,102.73,490.54,102.73Z"/><path class="cls-21" d="M608.75,99.06c3.86,0,3.86-6,0-6S604.88,99.06,608.75,99.06Z"/><path class="cls-21" d="M744.87,155.06h33c3.86,0,3.87-6,0-6h-33C741,149.06,741,155.06,744.87,155.06Z"/><path class="cls-21" d="M793.37,154.06c3.86,0,3.87-6,0-6S789.5,154.06,793.37,154.06Z"/><path class="cls-21" d="M745.33,477.25a2.75,2.75,0,0,0,2,.81H807.2v-5.24H745.39l-.06.06Z"/><path class="cls-21" d="M862.67,457H860.3a2.15,2.15,0,0,0-2.15,2.15v39.67h4.72V458.06A3.07,3.07,0,0,0,862.67,457Z"/><path class="cls-21" d="M862.87,541.42h-4.72v49.69h4.72Z"/><path class="cls-21" d="M862.87,508h-4.72v24.3h4.72Z"/><path class="cls-21" d="M915.37,488.06h.07V484.7a2.14,2.14,0,0,0-2.15-2.14H893.53a2.14,2.14,0,0,0-2.15,2.14v3.36Z"/><path class="cls-21" d="M928.87,579h-4.26v12.12h4.26Z"/><path class="cls-21" d="M928.4,434.43h-1.65a2.15,2.15,0,0,0-2.14,2.15V569.82h4.26V436.06A2.9,2.9,0,0,0,928.4,434.43Z"/><path class="cls-21" d="M958.87,466.56h22a3.2,3.2,0,0,0,1-.17v-1.55a2.14,2.14,0,0,0-2.14-2.14H960a2.15,2.15,0,0,0-2.15,2.14v1.54A3.06,3.06,0,0,0,958.87,466.56Z"/><path class="cls-21" d="M1015.12,515.52v-24.3h-3.25v24.3Z"/><path class="cls-21" d="M1011.87,482.06h3.25V459.12A2.15,2.15,0,0,0,1013,457h-1.09s0,.06,0,.09Z"/><path class="cls-21" d="M1015.12,591.11V524.69h-3.25v66.42Z"/><path class="cls-21" d="M612.2,445.4h36.67c3.86,0,3.87-6,0-6H612.2C608.34,439.4,608.34,445.4,612.2,445.4Z"/><path class="cls-21" d="M670.2,436.73c-3.86,0-3.86,6,0,6S674.07,436.73,670.2,436.73Z"/><path class="cls-33" d="M1034.44,591.11h-10.15v-132A11.34,11.34,0,0,0,1013,447.8H993.21a11.33,11.33,0,0,0-10.1,6.24,11.29,11.29,0,0,0-3.36-.51H960a11.78,11.78,0,0,0-2.15.21V436.58a11.32,11.32,0,0,0-11.31-11.31H926.75a11.32,11.32,0,0,0-11.31,11.31v37a11.7,11.7,0,0,0-2.15-.21H893.53a11.7,11.7,0,0,0-2.15.21V459.12a11.34,11.34,0,0,0-11.32-11.32H860.3A11.33,11.33,0,0,0,849,459.12v132H819.8v-16.7a4.56,4.56,0,0,0-3.43-4.42V559.44C831,557.72,835,547.8,835,542.33V495.64c0-7.82-8.57-11.27-9.55-11.64a4.47,4.47,0,0,0-1.62-.3h-7.44V468.23a4.59,4.59,0,0,0-4.59-4.58h-71a4.58,4.58,0,0,0-4.59,4.58V570a4.56,4.56,0,0,0-3.43,4.42v16.7H669.67V581a4.59,4.59,0,0,0-4.58-4.59H641.17a23.18,23.18,0,0,0,5.57-16,.92.92,0,0,0,0-.16l-.35-4.76h40.1a19.11,19.11,0,0,0,19.09-19.09V346.59a19.11,19.11,0,0,0-19.09-19.09H615.87a41.26,41.26,0,0,0,3.29-6.86c2.94-8.11,2.51-15.13-1.08-19.79C630.14,289.22,630,267.72,630,266.7a4.58,4.58,0,0,0-4.14-4.49,39.66,39.66,0,0,1-10.1-2.2c6.87-10.21,9-25.44,9.24-27.42a4.57,4.57,0,0,0-6.88-4.51c-5.88,3.49-13.76,4.22-19.62,4.19,5.33-10,6.19-24,6.29-26a4.58,4.58,0,0,0-6.68-4.29c-14.27,7.38-35.65,12.54-48.26,15.15C556,202,548.55,185.81,548.16,185a4.58,4.58,0,0,0-8.13-.29c-11.22,19.91-43.18,35-56.53,40.63a41,41,0,0,0-10.21-20.41,4.59,4.59,0,0,0-7.89,2.46c-1.07,7.3-6.75,15-10.92,20.13-5.65,7-11.51,14.56-16.21,23.15-8.72,15.94-10,33.46-9.83,47.5-.26.19-.52.39-.78.61-5.37,4.47-6.49,12.45-3.08,21.87a40.61,40.61,0,0,0,3.3,6.86H357.26a19.11,19.11,0,0,0-19.09,19.09V536.41a19.11,19.11,0,0,0,19.09,19.09H416.9l4.51,14.08a23.31,23.31,0,0,0,3.54,6.83h-46.3a4.59,4.59,0,0,0-4.58,4.59v10.11h-97.7c-14.54-18-19.25-18-20.83-18H234.8L177.33,425.72a4.69,4.69,0,0,0-.89-1.41,14.35,14.35,0,0,0,.51-3.73,15.33,15.33,0,0,0-.19-2.27l54.08-77.81a61.14,61.14,0,0,0,5.5,4.47c2.2,3,10.93,14.59,17.55,19a4.57,4.57,0,0,0,2.55.77,5.26,5.26,0,0,0,.89-.08,4.57,4.57,0,0,0,2.92-1.95l36.13-54.15a4.56,4.56,0,0,0-1.26-6.35c-6.63-4.42-20.69-8-24.3-8.92-27.25-16.78-59.54-7.22-60.91-6.8a4.59,4.59,0,0,0-3.22,4.83A88.75,88.75,0,0,0,216,320.88a5,5,0,0,0-.52.6l-60.38,87a14.28,14.28,0,0,0,.09,24.33,4.52,4.52,0,0,0,.29,1.48l54.13,138.82h-2.92c-1.58,0-6.29,0-20.82,18H127.35V505.66A11.67,11.67,0,0,0,115.7,494h-1.55l5.49-31.91a9.91,9.91,0,0,0-8.07-11.42l-8.46-1.44A9.86,9.86,0,0,0,91.7,457.3L85.4,494H79l-6.36-51.56a2.88,2.88,0,0,0-1.09-1.9,2.83,2.83,0,0,0-2.11-.59L59,441.27a2.87,2.87,0,0,0-2.49,3.19L62.58,494h-3a11.66,11.66,0,0,0-11.65,11.65v85.45H9.3A9.32,9.32,0,0,0,0,600.42v18a9.32,9.32,0,0,0,9.3,9.32H510.6v13.08a11.27,11.27,0,0,0,22.54,0V627.78h501.3a9.32,9.32,0,0,0,9.3-9.32v-18A9.32,9.32,0,0,0,1034.44,591.11ZM816.37,492.87h6.48c1.47.74,3,2,3,2.77v46.69c0,.29-.12,6.36-9.45,7.87Zm-759.3,42h61.11v21.39H57.07Zm0,28.26h61.11v28H57.07Zm390.85,12.77a13.29,13.29,0,0,1-2.21.5h-4.22a14.11,14.11,0,0,1-11.35-9.64l-3.62-11.27h29.69l.85,2.64A14.15,14.15,0,0,1,447.92,575.91Zm17.91-20.41H487.1l-7.49,20.91H462.22A23.28,23.28,0,0,0,465.83,555.5Zm171.75,5.35a14.13,14.13,0,0,1-23.71,10.86,14,14,0,0,1-4.53-9.74l-.14-6.47h28ZM600,555.5l.15,6.75a23.07,23.07,0,0,0,5.54,14.16H564.13l-7.49-20.91ZM858.15,508h24.06v24.3H858.15Zm0,33.47h24.06v49.69H858.15Zm35.38-58.86h19.76a2.14,2.14,0,0,1,2.15,2.14V591.11H891.38V484.7A2.14,2.14,0,0,1,893.53,482.56ZM924.61,579h24.06v12.12H924.61ZM960,462.7h19.77a2.14,2.14,0,0,1,2.14,2.14V591.11H957.83V464.84A2.15,2.15,0,0,1,960,462.7Zm31.08,2.14v-5.72a2.15,2.15,0,0,1,2.15-2.15H1013a2.15,2.15,0,0,1,2.15,2.15v22.94H991.06Zm0,26.38h24.06v24.3H991.06Zm0,33.47h24.06v66.42h-13.18V565.05c0-2.95-4.58-2.95-4.58,0v26.06h-6.3Zm-42.39-88.11V569.82H924.61V436.58a2.15,2.15,0,0,1,2.14-2.15h19.77A2.16,2.16,0,0,1,948.67,436.58Zm-66.46,22.54v39.67H858.15V459.12A2.15,2.15,0,0,1,860.3,457h19.76A2.15,2.15,0,0,1,882.21,459.12Zm-136.82,13.7H807.2v7.44H777.6c-3,0-3,4.59,0,4.59h29.6v85H745.33V559.13h23.3c2.94,0,3-4.58,0-4.58h-23.3V472.82ZM741.89,579h68.75v12.12H741.89Zm-81.38,6.59v5.53H569.4l-2-5.53ZM446.31,255.06c4.35-7.95,9.91-15.16,15.28-21.77a75,75,0,0,0,9.92-15.06c2.21,4.26,3.59,9.06,3,13.18a4.58,4.58,0,0,0,6.1,4.92c1.89-.69,42.15-15.45,61.74-39.05,1.25,6.66,1.28,16-5.51,23.18a4.58,4.58,0,0,0,4,7.68c1.41-.23,31.34-5.14,53.78-14.52-1.26,7.52-3.83,15.94-7.92,18.88a4.58,4.58,0,0,0,1.94,8.24c.67.11,13.53,2.13,25.55-1.24-1.63,6.54-4.49,14.59-8.81,18.55a4.58,4.58,0,0,0,.14,6.87c.54.46,5.11,4.12,15,5.83-.54,6.44-2.61,19.13-10.64,25a12.09,12.09,0,0,0-4.52-.05,15,15,0,0,0-5.29,2.13V288H591v7.87c-60.6,5.19-122.49-2.88-138.26-5.18V288h-9.16v9.8a15,15,0,0,0-5.29-2.13l-.7-.1C437.62,282.67,439.07,268.29,446.31,255.06Zm156.55,59.38a10.81,10.81,0,0,1-2.7,3V310.6c1.5-2.18,4.35-5.44,6.91-5.89a3.64,3.64,0,0,1,3.15,1.1c2.06,1.72,1.81,5.35,1.49,7.36-1.17,7.14-5.91,13.45-7.69,14.33h-3.86v-5.95a14.29,14.29,0,0,0,5.67-5.37A1.72,1.72,0,0,0,602.86,314.44Zm-43.94,3.89a5.73,5.73,0,0,0-5.73,5.73v3.44H490.55v-3.44a5.73,5.73,0,1,0-11.45,0v3.44H452.74V300a715.7,715.7,0,0,0,95.92,6.79c13.77,0,28.08-.48,42.34-1.67V327.5H564.65v-3.44A5.74,5.74,0,0,0,558.92,318.33ZM433.53,305.81a3.63,3.63,0,0,1,3.14-1.1c2.56.45,5.41,3.71,6.91,5.89V316a25.35,25.35,0,0,1-2.69-2.6c-1.48-1.65-3.9.78-2.43,2.43a28.5,28.5,0,0,0,5.12,4.51v7.18h-3.86c-1.78-.88-6.52-7.19-7.68-14.33C431.71,311.16,431.47,307.53,433.53,305.81Zm-86.2,230.6V346.59a10,10,0,0,1,9.93-9.93H686.48a10,10,0,0,1,9.93,9.93V536.41a10,10,0,0,1-9.93,9.93H357.26A10,10,0,0,1,347.33,536.41Zm35.9,49.17H440.9a22.29,22.29,0,0,0,2.71.18,22.72,22.72,0,0,0,2.72-.18h30l-2,5.53H383.23ZM217.49,299c-.46-1.8-.8-3.38-1.05-4.68,8.24-1.7,28.28-4.35,46.1,4.78l-2.76,4.14-21.24,31.81C225.68,324.17,219.94,308.6,217.49,299Zm40.59,43.58a1.77,1.77,0,0,0-2.43,0,1.74,1.74,0,0,0,0,2.43l3.15,2.58a2.64,2.64,0,0,0,.35.23l-3.7,5.54a117.64,117.64,0,0,1-10.21-11.83l12.93-19.36,6.3-9.45,2.35,1.49c1.87,1.18,3.6-1.79,1.73-3l-2.17-1.38,2.73-4.09,2-3a116.09,116.09,0,0,1,14.84,4.89L283.74,311,261,345Zm-37.67-12.19,2.94,2c.34.44.68.88,1,1.32l-22.91,33a47.53,47.53,0,0,0-3.39-4.12Zm-25.53,36.76a28.89,28.89,0,0,0,3.79,3.54l-2.84,4.09a1.81,1.81,0,0,0-.49-.46l-3.75-2.43Zm-5.25,7.56,4,2.57a1.46,1.46,0,0,0,.35.18l-22.25,32a14.26,14.26,0,0,0-4.5-2.49Zm-28.95,50.6a5.15,5.15,0,1,1,1.95.39A5.06,5.06,0,0,1,160.68,425.34Zm5,9.85,4.8-1.87,8.69,22.28-5.56-.09ZM174.93,459l5.56.08,2.87,7.37h-5.53Zm5,12.75h5.53l21.5,55.14H201.4Zm22.84,58.58h5.53L225,573.07h-5.54Zm4.41,51.94h47.9c1.61.82,5.23,4.33,9.28,8.87H197.87C201.93,586.57,205.55,583.06,207.15,582.24ZM98.47,458.46A3,3,0,0,1,102,456l8.45,1.45a3,3,0,0,1,2.46,3.47l-1.46,8.49L97,467Zm-2.62,15.27,14.39,2.47L107.18,494H92.37ZM73.26,494H68.35L64.6,463.66l4.84-.6ZM62.5,446.6l4.83-.6,1.26,10.24-4.83.59Zm53.2,56.58a2.48,2.48,0,0,1,2.48,2.48V528H57.07V505.66a2.49,2.49,0,0,1,2.49-2.48H115.7ZM9.3,618.61a.14.14,0,0,1-.13-.15v-18a.13.13,0,0,1,.13-.14H510.6v18.33Zm501.3-42.29v14.79H484.08l12.76-35.61h50.07l12.75,35.61H533.14V576.32a11.27,11.27,0,1,0-22.54,0ZM524,640.86a2.1,2.1,0,0,1-4.2,0V576.32a2.1,2.1,0,0,1,4.2,0Zm510.47-22.25H533.14V600.28h501.3a.14.14,0,0,1,.14.14v18A.15.15,0,0,1,1034.44,618.61Z"/><path class="cls-33" d="M521.87,474.35A32.85,32.85,0,1,0,489,441.5,32.89,32.89,0,0,0,521.87,474.35Zm0-56.53a23.68,23.68,0,1,1-23.68,23.68A23.7,23.7,0,0,1,521.87,417.82Z"/><path class="cls-33" d="M649.34,361.87H673.4a5.45,5.45,0,0,0,0-10.89H649.34a5.45,5.45,0,1,0,0,10.89Z"/><path class="cls-33" d="M372.16,513.87V418.39c0-4.42-6.88-4.43-6.88,0v95.48C365.28,518.3,372.16,518.3,372.16,513.87Z"/><path class="cls-33" d="M368.72,398.92c4.42,0,4.43-6.88,0-6.88S364.29,398.92,368.72,398.92Z"/><path class="cls-33" d="M368.72,381.35c4.42,0,4.43-6.88,0-6.88S364.29,381.35,368.72,381.35Z"/><path class="cls-33" d="M368.72,363.78c4.42,0,4.43-6.88,0-6.88S364.29,363.78,368.72,363.78Z"/><path class="cls-33" d="M574.19,522.66H659c4.42,0,4.43-6.88,0-6.88H574.19C569.77,515.78,569.76,522.66,574.19,522.66Z"/><path class="cls-33" d="M672.73,515c-4.42,0-4.43,6.87,0,6.87S677.16,515,672.73,515Z"/><path class="cls-33" d="M65.09,580.52c3.69,0,3.7-5.73,0-5.73S61.4,580.52,65.09,580.52Z"/><path class="cls-33" d="M76.74,580.52c3.69,0,3.7-5.73,0-5.73S73.05,580.52,76.74,580.52Z"/><path class="cls-33" d="M86.86,580.52h22c3.69,0,3.7-5.73,0-5.73h-22C83.18,574.79,83.17,580.52,86.86,580.52Z"/><path class="cls-33" d="M228.6,303.6c-.74-2.07-4.06-1.18-3.31.91a29.86,29.86,0,0,0,5.61,9.57c1.45,1.68,3.88-.76,2.43-2.43A25.24,25.24,0,0,1,228.6,303.6Z"/><path class="cls-33" d="M235.82,315.75a1.72,1.72,0,0,0,0,3.44A1.72,1.72,0,0,0,235.82,315.75Z"/><path class="cls-33" d="M903.41,508.53a6.3,6.3,0,0,0-6.3,6.3v43.82a6.3,6.3,0,1,0,12.6,0V514.83A6.3,6.3,0,0,0,903.41,508.53Z"/><rect class="cls-33" x="963.85" y="486.09" width="11.74" height="20.34"/><rect class="cls-33" x="963.85" y="516.93" width="11.74" height="45.07"/><path class="cls-33" d="M942,488.28v-40.1c0-2.95-4.58-2.95-4.58,0v40.1C937.4,491.23,942,491.24,942,488.28Z"/><path class="cls-33" d="M939.31,500.89c3,0,3-4.58,0-4.58S936.36,500.89,939.31,500.89Z"/><path class="cls-33" d="M939.31,510.44c3,0,3-4.59,0-4.59S936.36,510.44,939.31,510.44Z"/><path class="cls-33" d="M999.27,555.5c3,0,3-4.58,0-4.58S996.32,555.5,999.27,555.5Z"/><path class="cls-33" d="M877.44,565.81V555.12c0-3-4.58-3-4.58,0v10.69C872.86,568.76,877.44,568.77,877.44,565.81Z"/><path class="cls-33" d="M874.77,572c-2.95,0-3,4.59,0,4.59S877.72,572,874.77,572Z"/><path class="cls-33" d="M867.6,482.17a2.32,2.32,0,0,0,2.3-2.29V477a2.3,2.3,0,0,0-4.59,0v2.86A2.32,2.32,0,0,0,867.6,482.17Z"/><path class="cls-33" d="M867.6,472.72c2.95,0,3-4.58,0-4.58S864.65,472.72,867.6,472.72Z"/><path class="cls-33" d="M1008,461.84a2.32,2.32,0,0,0-2.29,2.29V467a2.29,2.29,0,1,0,4.58,0v-2.86A2.31,2.31,0,0,0,1008,461.84Z"/><path class="cls-33" d="M475,278.53a196.37,196.37,0,0,0,41.74,2.16c3.66-.2,3.69-5.93,0-5.73a188.52,188.52,0,0,1-40.21-2C472.89,272.43,471.34,278,475,278.53Z"/><path class="cls-33" d="M527.31,279.09c3.69,0,3.7-5.73,0-5.73S523.62,279.09,527.31,279.09Z"/><path class="cls-33" d="M537.05,278.23c3.69,0,3.69-5.73,0-5.73S533.36,278.23,537.05,278.23Z"/><path class="cls-33" d="M566,243.86c3.69,0,3.7-5.73,0-5.73S562.29,243.86,566,243.86Z"/><path class="cls-33" d="M772.27,536.65a24.18,24.18,0,0,0,12-3.35c9.76-5.63,14.1-16.45,9.68-24.11s-16-9.3-25.72-3.67-14.09,16.45-9.67,24.11C761.22,534.22,766.42,536.65,772.27,536.65Zm-.59-25.18a17.68,17.68,0,0,1,8.66-2.44c3.39,0,6.29,1.22,7.67,3.6,2.48,4.3-.8,11-7.16,14.72s-13.84,3.14-16.33-1.16S765.32,515.15,771.68,511.47Z"/><path class="cls-33" d="M770.64,522.68a3.6,3.6,0,0,0,1.89.68,6,6,0,0,0,3.07-.63,9.91,9.91,0,0,0,2.87-2.23c.82-.88,1.45-1.73,2-2.4a9.55,9.55,0,0,1,1.85-1.65,4.88,4.88,0,0,1,1.73-.73,4.59,4.59,0,0,1,.78-.09,3,3,0,0,0-.71-.38A4.65,4.65,0,0,0,782,515a7,7,0,0,0-3,1.1,14.08,14.08,0,0,0-2.72,2.37c-.79.86-1.47,1.63-2.09,2.18a7.43,7.43,0,0,1-1.88,1.23,4.18,4.18,0,0,1-1.48.35,4.12,4.12,0,0,1-.6,0l.11.13A3.53,3.53,0,0,0,770.64,522.68Z"/><path class="cls-33" d="M780.27,554.55c-2.94,0-2.95,4.58,0,4.58S783.23,554.55,780.27,554.55Z"/><path class="cls-33" d="M790.59,554.55c-3,0-3,4.58,0,4.58S793.54,554.55,790.59,554.55Z"/><path class="cls-33" d="M449.27,72.14A27.16,27.16,0,1,0,476.43,45,27.19,27.19,0,0,0,449.27,72.14Zm27.16-18a18,18,0,1,1-18,18A18,18,0,0,1,476.43,54.14Z"/><path class="cls-33" d="M584.75,130.3a19.7,19.7,0,0,0,3.4.3A19.2,19.2,0,1,0,569.25,108a19.2,19.2,0,0,0,15.5,22.29Zm-7.61-20.87a11.15,11.15,0,0,1,13-9,11.17,11.17,0,0,1,9,13,11.19,11.19,0,0,1-13,9,11.18,11.18,0,0,1-9-13Z"/><path class="cls-33" d="M546.82,92.73A4,4,0,0,0,542.17,96l-2.5,13.91a4,4,0,0,0,3.24,4.66l8.34,1.49c0,.42.11.83.18,1.24a15.54,15.54,0,0,1-4.93,1.28,2.94,2.94,0,0,0-2.86,2.87,2.88,2.88,0,0,0,2.86,2.86,23.77,23.77,0,0,0,5.29-1.08l-6.06,4.22a4,4,0,0,0-1,5.58l8.07,11.6a4,4,0,0,0,5.58,1l7-4.84a36.77,36.77,0,0,0,5.64,3.62l-1.49,8.34a4,4,0,0,0,3.24,4.65l13.91,2.5a4.14,4.14,0,0,0,.7.06,4,4,0,0,0,3.95-3.3l1.5-8.33a36.73,36.73,0,0,0,6.54-1.44l4.84,6.95a4,4,0,0,0,5.58,1l11.6-8.07a4,4,0,0,0,1-5.59l-4.83-6.95c.41-.53.81-1.08,1.19-1.63a93.54,93.54,0,0,0,14.57,10.84c3.17,1.9,6.06-3,2.89-4.95A86.22,86.22,0,0,1,623.22,129l6.24,1.11a4,4,0,0,0,4.66-3.23l2.49-13.91a4,4,0,0,0-3.24-4.66L625,106.77a37.51,37.51,0,0,0-1.43-6.55l6.95-4.84a4,4,0,0,0,1-5.58l-8.07-11.6a4.05,4.05,0,0,0-2.58-1.66,4,4,0,0,0-3,.66L611,82c-.19-.16-.39-.3-.59-.45a81.34,81.34,0,0,0,8.41-14.41c1.5-3.34-3.43-6.25-4.95-2.9a81,81,0,0,1-8.28,14.26l-.23-.13,1.5-8.33a4,4,0,0,0-.66-3,4,4,0,0,0-2.58-1.65l-13.91-2.5A4,4,0,0,0,585,66.17l-1.5,8.33A36.84,36.84,0,0,0,577,75.94l-4.84-7a4,4,0,0,0-5.58-1l-11.6,8.07a4,4,0,0,0-1,5.59l4.84,7a36.29,36.29,0,0,0-3.62,5.64Zm14.37,7.52a29,29,0,0,1,5.58-8.69,4,4,0,0,0,.36-5l-4.31-6.19,5-3.49,4.31,6.19A4,4,0,0,0,577,84.46a28.83,28.83,0,0,1,10.09-2.2,4,4,0,0,0,3.8-3.3l1.33-7.43,6,1.08L596.87,80a4,4,0,0,0,2.42,4.41A28.83,28.83,0,0,1,608,90a4,4,0,0,0,5,.35l6.2-4.31,3.49,5-6.2,4.31a4,4,0,0,0-1.41,4.83,29,29,0,0,1,2.21,10.08,4,4,0,0,0,3.3,3.81l7.42,1.33-1.08,6-7.42-1.33a4,4,0,0,0-4.42,2.42,28.82,28.82,0,0,1-5.57,8.68,4,4,0,0,0-.36,5l4.31,6.19-5,3.49-4.31-6.19a4,4,0,0,0-4.83-1.42,28.74,28.74,0,0,1-10.08,2.21,4,4,0,0,0-3.8,3.3l-1.34,7.43-6-1.08,1.33-7.43a4,4,0,0,0-2.42-4.41,28.85,28.85,0,0,1-8.68-5.58,4,4,0,0,0-5-.35l-6.2,4.31-3.49-5,6.2-4.31a4,4,0,0,0,1.41-4.83A28.79,28.79,0,0,1,559,112.48a4,4,0,0,0-3.3-3.8l-7.42-1.33,1.08-6,7.42,1.33A4,4,0,0,0,561.19,100.25Z"/><path class="cls-33" d="M141.76,254.17H339.41a17.5,17.5,0,0,0,17.47-17.48V117a17.49,17.49,0,0,0-17.47-17.47H141.76A17.49,17.49,0,0,0,124.29,117V236.69A17.5,17.5,0,0,0,141.76,254.17ZM133.46,117a8.31,8.31,0,0,1,8.3-8.3H339.41a8.31,8.31,0,0,1,8.31,8.3V236.69a8.32,8.32,0,0,1-8.31,8.31H141.76a8.31,8.31,0,0,1-8.3-8.31Z"/><path class="cls-33" d="M146.63,238.51H334.54a6,6,0,0,0,6-6V121.17a6,6,0,0,0-6-6H146.63a6,6,0,0,0-6,6V232.49A6,6,0,0,0,146.63,238.51Zm3.16-114.19h181.6v105H149.79Z"/><path class="cls-33" d="M704.33,254.17H902a17.5,17.5,0,0,0,17.47-17.48V117A17.49,17.49,0,0,0,902,99.49H704.33A17.49,17.49,0,0,0,686.86,117V236.69A17.5,17.5,0,0,0,704.33,254.17ZM696,117a8.31,8.31,0,0,1,8.3-8.3H902a8.31,8.31,0,0,1,8.3,8.3V236.69A8.31,8.31,0,0,1,902,245H704.33a8.31,8.31,0,0,1-8.3-8.31Z"/><path class="cls-33" d="M709.2,238.51H897.11a6,6,0,0,0,6-6V121.17a6,6,0,0,0-6-6H709.2a6,6,0,0,0-6,6V232.49A6,6,0,0,0,709.2,238.51Zm3.15-114.19H894v105H712.35Z"/><path class="cls-33" d="M447.78,5.73c3.68,0,3.69-5.73,0-5.73S444.09,5.73,447.78,5.73Z"/><path class="cls-33" d="M542.78,45.35c3.69,0,3.69-5.73,0-5.73S539.09,45.35,542.78,45.35Z"/><path class="cls-33" d="M403.85,102.23a83.32,83.32,0,0,0,23.82-7.15c.47,1,1,2,1.51,3l-9.63,9.63a4.59,4.59,0,0,0,0,6.48L434.4,129a4.59,4.59,0,0,0,6.49,0l9.62-9.63a53.58,53.58,0,0,0,10.83,4.49v13.61a4.59,4.59,0,0,0,4.59,4.58h21a4.59,4.59,0,0,0,4.59-4.58V123.88c1.16-.34,2.31-.73,3.45-1.15.78,1.93,1.56,3.87,2.33,5.8a3,3,0,0,0,3.53,2c1.36-.38,2.58-2.08,2-3.52l-2.62-6.52c.72-.35,1.43-.71,2.14-1.1L512,129a4.58,4.58,0,0,0,6.48,0l14.86-14.86a4.59,4.59,0,0,0,0-6.48l-9.63-9.63a52.55,52.55,0,0,0,4.49-10.83h13.61a4.59,4.59,0,0,0,4.59-4.58v-21a4.59,4.59,0,0,0-4.59-4.59H528.17c-.24-.82-.5-1.64-.78-2.45a12.27,12.27,0,0,0,1.72-1.15l6.59-5.2c1.22-1,1-3,0-4.06a2.94,2.94,0,0,0-4.05,0l-4,3.17a26.34,26.34,0,0,1-2.4,1.94c-.49-1-1-2.07-1.56-3.08l9.63-9.63a4.59,4.59,0,0,0,0-6.48L518.46,15.26a4.59,4.59,0,0,0-6.49,0l-9.62,9.63a53.61,53.61,0,0,0-10.83-4.5V6.78a4.59,4.59,0,0,0-4.59-4.58h-21a4.59,4.59,0,0,0-4.59,4.58V20.39c-.72.22-1.44.46-2.15.7l-4.55-9.83c-1.54-3.34-6.48-.44-4.94,2.89q2.08,4.53,4.18,9c-1.14.53-2.26,1.08-3.37,1.69l-9.62-9.63a4.59,4.59,0,0,0-6.49,0L419.55,30.11a4.58,4.58,0,0,0,0,6.48l9.63,9.63a53,53,0,0,0-4.49,10.83H411.08a4.59,4.59,0,0,0-4.59,4.59v21a4.59,4.59,0,0,0,4.59,4.58h13.61q.38,1.29.81,2.55a78.6,78.6,0,0,1-23.17,6.93C398.69,97.22,400.24,102.74,403.85,102.23Zm11.81-24.17V66.22h12.59a4.58,4.58,0,0,0,4.48-3.61A44.4,44.4,0,0,1,438.79,48a4.57,4.57,0,0,0-.61-5.72l-8.91-8.91L437.64,25l8.91,8.91a4.59,4.59,0,0,0,5.72.61,44.4,44.4,0,0,1,14.63-6.06A4.59,4.59,0,0,0,470.51,24V11.37h11.84V24A4.59,4.59,0,0,0,486,28.44a44.49,44.49,0,0,1,14.63,6.06,4.59,4.59,0,0,0,5.72-.61l8.9-8.91,8.38,8.37-8.91,8.91a4.57,4.57,0,0,0-.61,5.72,44.4,44.4,0,0,1,6.06,14.63,4.58,4.58,0,0,0,4.48,3.61H537.2V78.06H524.61a4.58,4.58,0,0,0-4.48,3.61,44.58,44.58,0,0,1-6.06,14.63,4.57,4.57,0,0,0,.61,5.72l8.91,8.9-8.38,8.37-8.9-8.9a4.59,4.59,0,0,0-5.72-.62A44.3,44.3,0,0,1,486,115.84a4.58,4.58,0,0,0-3.61,4.48v12.59H470.51V120.32a4.58,4.58,0,0,0-3.61-4.48,44.21,44.21,0,0,1-14.63-6.07,4.59,4.59,0,0,0-5.72.62l-8.91,8.9-8.37-8.37,8.91-8.9a4.57,4.57,0,0,0,.61-5.72,44.58,44.58,0,0,1-6.06-14.63,4.58,4.58,0,0,0-4.48-3.61Z"/><path class="cls-33" d="M393.16,102.35c3.69,0,3.7-5.72,0-5.72S389.47,102.35,393.16,102.35Z"/><path class="cls-33" d="M507,142.07c3.68,0,3.69-5.72,0-5.72S503.28,142.07,507,142.07Z"/><path class="cls-33" d="M538.1,119c-3.68,0-3.69,5.73,0,5.73S541.79,119,538.1,119Z"/><path class="cls-33" d="M621,57.1c3.69,0,3.69-5.73,0-5.73S617.29,57.1,621,57.1Z"/><path class="cls-33" d="M643.13,148.38c3.69,0,3.69-5.73,0-5.73S639.44,148.38,643.13,148.38Z"/></g></g></svg>